<svg xmlns="http://www.w3.org/2000/svg" viewBox="0 0 100 100">
  <defs>
    <linearGradient id="aiGrad" x1="0%" y1="0%" x2="100%" y2="100%">
      <stop offset="0%" stop-color="#3b82f6" />
      <stop offset="100%" stop-color="#06b6d4" />
    </linearGradient>
    <filter id="glow" x="-50%" y="-50%" width="200%" height="200%">
      <feGaussianBlur in="SourceGraphic" stdDeviation="2" result="blur" />
      <feColorMatrix in="blur" mode="matrix" values="1 0 0 0 0  0 1 0 0 0  0 0 1 0 0  0 0 0 18 -7" result="glow" />
      <feBlend in="SourceGraphic" in2="glow" mode="screen" />
    </filter>
  </defs>
  
  <!-- Dark background -->
  <circle cx="50" cy="50" r="45" fill="#0f172a" />
  
  <g filter="url(#glow)">
    <!-- Circuit board patterns -->
    <path d="M20 30 H30 V40 H40 V30 H50 V20 H60 V30 H70 V40 H80" 
          stroke="url(#aiGrad)" stroke-width="1" fill="none" opacity="0.4" />
    <path d="M20 50 H30 V60 H40 V70 H50 V80 H60 V70 H70 V60 H80" 
          stroke="url(#aiGrad)" stroke-width="1" fill="none" opacity="0.4" />
    
    <!-- Connection nodes -->
    <circle cx="20" cy="30" r="2" fill="url(#aiGrad)" opacity="0.8" />
    <circle cx="30" cy="40" r="2" fill="url(#aiGrad)" opacity="0.8" />
    <circle cx="40" cy="30" r="2" fill="url(#aiGrad)" opacity="0.8" />
    <circle cx="50" cy="20" r="2" fill="url(#aiGrad)" opacity="0.8" />
    <circle cx="60" cy="30" r="2" fill="url(#aiGrad)" opacity="0.8" />
    <circle cx="70" cy="40" r="2" fill="url(#aiGrad)" opacity="0.8" />
    <circle cx="80" cy="40" r="2" fill="url(#aiGrad)" opacity="0.8" />
    
    <circle cx="20" cy="50" r="2" fill="url(#aiGrad)" opacity="0.8" />
    <circle cx="30" cy="60" r="2" fill="url(#aiGrad)" opacity="0.8" />
    <circle cx="40" cy="70" r="2" fill="url(#aiGrad)" opacity="0.8" />
    <circle cx="50" cy="80" r="2" fill="url(#aiGrad)" opacity="0.8" />
    <circle cx="60" cy="70" r="2" fill="url(#aiGrad)" opacity="0.8" />
    <circle cx="70" cy="60" r="2" fill="url(#aiGrad)" opacity="0.8" />
    <circle cx="80" cy="50" r="2" fill="url(#aiGrad)" opacity="0.8" />
    
    <!-- Brain network -->
    <circle cx="50" cy="50" r="15" stroke="url(#aiGrad)" stroke-width="1.5" fill="none" />
    
    <!-- Neural connections -->
    <line x1="35" y1="50" x2="20" y2="30" stroke="url(#aiGrad)" stroke-width="0.8" opacity="0.6" />
    <line x1="35" y1="50" x2="30" y2="40" stroke="url(#aiGrad)" stroke-width="0.8" opacity="0.6" />
    <line x1="35" y1="50" x2="40" y2="30" stroke="url(#aiGrad)" stroke-width="0.8" opacity="0.6" />
    <line x1="35" y1="50" x2="50" y2="20" stroke="url(#aiGrad)" stroke-width="0.8" opacity="0.6" />
    
    <line x1="65" y1="50" x2="60" y2="30" stroke="url(#aiGrad)" stroke-width="0.8" opacity="0.6" />
    <line x1="65" y1="50" x2="70" y2="40" stroke="url(#aiGrad)" stroke-width="0.8" opacity="0.6" />
    <line x1="65" y1="50" x2="80" y2="40" stroke="url(#aiGrad)" stroke-width="0.8" opacity="0.6" />
    
    <line x1="50" y1="35" x2="20" y2="50" stroke="url(#aiGrad)" stroke-width="0.8" opacity="0.6" />
    <line x1="50" y1="35" x2="30" y2="60" stroke="url(#aiGrad)" stroke-width="0.8" opacity="0.6" />
    
    <line x1="50" y1="65" x2="40" y2="70" stroke="url(#aiGrad)" stroke-width="0.8" opacity="0.6" />
    <line x1="50" y1="65" x2="50" y2="80" stroke="url(#aiGrad)" stroke-width="0.8" opacity="0.6" />
    <line x1="50" y1="65" x2="60" y2="70" stroke="url(#aiGrad)" stroke-width="0.8" opacity="0.6" />
    <line x1="50" y1="65" x2="70" y2="60" stroke="url(#aiGrad)" stroke-width="0.8" opacity="0.6" />
    <line x1="50" y1="65" x2="80" y2="50" stroke="url(#aiGrad)" stroke-width="0.8" opacity="0.6" />
    
    <!-- Neural nodes -->
    <circle cx="35" cy="50" r="3" fill="url(#aiGrad)" opacity="0.9" />
    <circle cx="65" cy="50" r="3" fill="url(#aiGrad)" opacity="0.9" />
    <circle cx="50" cy="35" r="3" fill="url(#aiGrad)" opacity="0.9" />
    <circle cx="50" cy="65" r="3" fill="url(#aiGrad)" opacity="0.9" />
    
    <!-- Central node -->
    <circle cx="50" cy="50" r="5" fill="url(#aiGrad)" opacity="0.9" />
    <circle cx="50" cy="50" r="3" fill="#0f172a" />
    <circle cx="50" cy="50" r="1.5" fill="url(#aiGrad)" />
  </g>
</svg>