<svg xmlns="http://www.w3.org/2000/svg" viewBox="0 0 100 100">
  <defs>
    <linearGradient id="backendGrad" x1="0%" y1="0%" x2="100%" y2="100%">
      <stop offset="0%" stop-color="#a855f7" />
      <stop offset="100%" stop-color="#8b5cf6" />
    </linearGradient>
    <filter id="glow" x="-50%" y="-50%" width="200%" height="200%">
      <feGaussianBlur in="SourceGraphic" stdDeviation="2" result="blur" />
      <feColorMatrix in="blur" mode="matrix" values="1 0 0 0 0  0 1 0 0 0  0 0 1 0 0  0 0 0 18 -7" result="glow" />
      <feBlend in="SourceGraphic" in2="glow" mode="screen" />
    </filter>
  </defs>
  
  <!-- Dark background -->
  <circle cx="50" cy="50" r="45" fill="#0f172a" />
  
  <g filter="url(#glow)">
    <!-- Database cylinders -->
    <path d="M32 25 C32 22 40 18 50 18 C60 18 68 22 68 25 L68 35 C68 38 60 42 50 42 C40 42 32 38 32 35 Z" 
          fill="none" stroke="url(#backendGrad)" stroke-width="1.5" opacity="0.9" />
    <ellipse cx="50" cy="25" rx="18" ry="7" fill="none" stroke="url(#backendGrad)" stroke-width="1.5" opacity="0.9" />
    
    <path d="M32 45 C32 42 40 38 50 38 C60 38 68 42 68 45 L68 55 C68 58 60 62 50 62 C40 62 32 58 32 55 Z" 
          fill="none" stroke="url(#backendGrad)" stroke-width="1.5" opacity="0.9" />
    <ellipse cx="50" cy="45" rx="18" ry="7" fill="none" stroke="url(#backendGrad)" stroke-width="1.5" opacity="0.9" />
    
    <path d="M32 65 C32 62 40 58 50 58 C60 58 68 62 68 65 L68 75 C68 78 60 82 50 82 C40 82 32 78 32 75 Z" 
          fill="none" stroke="url(#backendGrad)" stroke-width="1.5" opacity="0.9" />
    <ellipse cx="50" cy="65" rx="18" ry="7" fill="none" stroke="url(#backendGrad)" stroke-width="1.5" opacity="0.9" />
    
    <!-- Data flow lines -->
    <path d="M20 30 H30" stroke="url(#backendGrad)" stroke-width="1.5" opacity="0.8" />
    <path d="M20 50 H30" stroke="url(#backendGrad)" stroke-width="1.5" opacity="0.8" />
    <path d="M20 70 H30" stroke="url(#backendGrad)" stroke-width="1.5" opacity="0.8" />
    
    <path d="M70 30 H80" stroke="url(#backendGrad)" stroke-width="1.5" opacity="0.8" />
    <path d="M70 50 H80" stroke="url(#backendGrad)" stroke-width="1.5" opacity="0.8" />
    <path d="M70 70 H80" stroke="url(#backendGrad)" stroke-width="1.5" opacity="0.8" />
    
    <path d="M20 30 V70" stroke="url(#backendGrad)" stroke-width="1.5" opacity="0.8" />
    <path d="M80 30 V70" stroke="url(#backendGrad)" stroke-width="1.5" opacity="0.8" />
    
    <!-- Connection nodes -->
    <circle cx="20" cy="30" r="2" fill="url(#backendGrad)" opacity="0.9" />
    <circle cx="20" cy="50" r="2" fill="url(#backendGrad)" opacity="0.9" />
    <circle cx="20" cy="70" r="2" fill="url(#backendGrad)" opacity="0.9" />
    
    <circle cx="80" cy="30" r="2" fill="url(#backendGrad)" opacity="0.9" />
    <circle cx="80" cy="50" r="2" fill="url(#backendGrad)" opacity="0.9" />
    <circle cx="80" cy="70" r="2" fill="url(#backendGrad)" opacity="0.9" />
    
    <!-- Data visualization elements -->
    <path d="M15 25 L15 75 L85 75" stroke="url(#backendGrad)" stroke-width="0.8" opacity="0.4" />
    <path d="M20 65 L30 55 L40 60 L50 40 L60 50 L70 35" 
          stroke="url(#backendGrad)" stroke-width="1" fill="none" opacity="0.4" />
  </g>
</svg>