<svg xmlns="http://www.w3.org/2000/svg" viewBox="0 0 100 100">
  <defs>
    <linearGradient id="reactGrad" x1="0%" y1="0%" x2="100%" y2="100%">
      <stop offset="0%" stop-color="#61dafb" />
      <stop offset="100%" stop-color="#0ea5e9" />
    </linearGradient>
    <filter id="glow" x="-50%" y="-50%" width="200%" height="200%">
      <feGaussianBlur in="SourceGraphic" stdDeviation="2" result="blur" />
      <feColorMatrix in="blur" mode="matrix" values="1 0 0 0 0  0 1 0 0 0  0 0 1 0 0  0 0 0 18 -7" result="glow" />
      <feBlend in="SourceGraphic" in2="glow" mode="screen" />
    </filter>
  </defs>
  
  <!-- Dark background -->
  <circle cx="50" cy="50" r="45" fill="#0f172a" />
  
  <g filter="url(#glow)">
    <!-- React Atom -->
    <g transform="translate(50,50)">
      <!-- Electron orbit 1 -->
      <ellipse rx="25" ry="10" fill="none" stroke="url(#reactGrad)" stroke-width="1.2" opacity="0.8" />
      
      <!-- Electron orbit 2 -->
      <ellipse rx="25" ry="10" fill="none" stroke="url(#reactGrad)" stroke-width="1.2" opacity="0.8" transform="rotate(60)" />
      
      <!-- Electron orbit 3 -->
      <ellipse rx="25" ry="10" fill="none" stroke="url(#reactGrad)" stroke-width="1.2" opacity="0.8" transform="rotate(120)" />
      
      <!-- Center nucleus -->
      <circle r="6" fill="url(#reactGrad)" opacity="0.9" />
      
      <!-- Electrons -->
      <circle r="2.5" fill="url(#reactGrad)" cx="25" cy="0" />
      <circle r="2.5" fill="url(#reactGrad)" cx="-12.5" cy="21.7" />
      <circle r="2.5" fill="url(#reactGrad)" cx="-12.5" cy="-21.7" />
    </g>
    
    <!-- Code elements -->
    <path d="M28 75 L38 75 L35 70 L38 65 L28 65 L31 70 Z" fill="none" stroke="url(#reactGrad)" stroke-width="1" opacity="0.7" />
    <path d="M62 75 L72 75 L69 70 L72 65 L62 65 L65 70 Z" fill="none" stroke="url(#reactGrad)" stroke-width="1" opacity="0.7" />
    <path d="M45 25 L55 25 L58 30 L55 35 L45 35 L42 30 Z" fill="none" stroke="url(#reactGrad)" stroke-width="1" opacity="0.7" />
    
    <!-- Code brackets -->
    <path d="M20 40 L15 50 L20 60" stroke="url(#reactGrad)" stroke-width="1.5" fill="none" />
    <path d="M80 40 L85 50 L80 60" stroke="url(#reactGrad)" stroke-width="1.5" fill="none" />
  </g>
</svg>